<svg id="Layer_1" data-name="Layer 1" xmlns="http://www.w3.org/2000/svg" viewBox="0 0 275.15 64.63"><defs><style>.cls-1{fill:#fff;}.cls-2{fill:#e88823;fill-rule:evenodd;}</style></defs><title>aboutlogowhit</title><path class="cls-1" d="M147.18,135.07l-.15.16c-2.42-.06-3.89-.09-4.39-.09q-3,0-5.61.09l-.15-.16v-1l.17-.18,1.42-.08c.6,0,.91-.25.91-.64a6.23,6.23,0,0,0-.46-1.54l-1.33-3.46c-1.51,0-3.05,0-4.63,0l-3.8,0-.72,2a12.42,12.42,0,0,0-.82,2.85c0,.41.25.66.77.74.28,0,.84.08,1.67.13l.17.16v1l-.17.16q-3-.09-3.9-.09-.68,0-3.33.09l-.16-.14V134l.18-.16c1.12-.07,1.81-.29,2.07-.67s1.22-2.66,2.89-6.84l4.28-10.7c.32-.83.8-2.08,1.45-3.75h2.33l8.69,20.43c.34.78.64,1.22.91,1.32a4.88,4.88,0,0,0,1.56.19l.15.18Zm-10.4-8.82-3.5-8.58-3.37,8.58c.9,0,2.06,0,3.5,0S135.92,126.29,136.78,126.25Z" transform="translate(-10.71 -108.37)"/><path class="cls-1" d="M182.5,113.28l-.18.16c-1.12.07-1.76.12-1.92.16a.72.72,0,0,0-.56.61,37.35,37.35,0,0,0-.21,5.08v6.65c0,4.91.07,8.1.21,9.59l-.21.15c-1.24-.21-2.17-.36-2.8-.45q-4.4-4.92-15-18V128A37.35,37.35,0,0,0,162,133a.72.72,0,0,0,.56.61c.17,0,.81.09,1.92.16l.16.16v1.12l-.16.14q-1.89-.09-3.51-.09c-1.26,0-2.52,0-3.79.09l-.16-.14V134l.16-.16c1.12-.07,1.76-.12,1.92-.16a.72.72,0,0,0,.56-.61,37.35,37.35,0,0,0,.21-5.08v-8.67a37.35,37.35,0,0,0-.21-5.08.72.72,0,0,0-.56-.61c-.16,0-.8-.09-1.92-.16l-.16-.16v-1.12l.16-.15c1,.07,2,.1,3,.1,1.48,0,2.7,0,3.67-.1q5.91,7.88,13.88,16.87v-9.59a35.15,35.15,0,0,0-.22-5.08.71.71,0,0,0-.55-.61c-.17,0-.81-.09-1.92-.16l-.17-.16v-1.12L175,112c1.22.07,2.39.1,3.49.1,1.41,0,2.68,0,3.8-.1l.17.15Z" transform="translate(-10.71 -108.37)"/><path class="cls-1" d="M217.64,123q0,6-3.53,9.48c-2.28,2.23-5.41,3.35-9.36,3.35q-5.61,0-8.81-3.16c-2.13-2.1-3.19-5-3.19-8.77,0-5.26,2-8.89,6-10.92a15,15,0,0,1,6.74-1.37q5.73,0,8.91,3A11,11,0,0,1,217.64,123Zm-5,.85a13.23,13.23,0,0,0-1.91-7.55,6.36,6.36,0,0,0-5.6-2.79q-4.87,0-6.46,4.37a14.56,14.56,0,0,0-.82,5,14.81,14.81,0,0,0,1.86,8,6.42,6.42,0,0,0,5.79,3q4.68,0,6.28-4.6A16.56,16.56,0,0,0,212.59,123.88Z" transform="translate(-10.71 -108.37)"/><path class="cls-1" d="M252.38,113.29l-.16.17a4.94,4.94,0,0,0-1.47.27,1.91,1.91,0,0,0-.68.74,31.13,31.13,0,0,0-1.41,3.08l-1.17,2.77-2.19,5.34q-2.84,6.89-3.82,9.69H239l-7.52-18.24a13.69,13.69,0,0,0-1.67-3.28,3.61,3.61,0,0,0-2-.37l-.16-.18V112.2l.18-.19c1.15.07,2.6.1,4.35.1q3.27,0,6-.1l.17.19v1.09l-.15.17a5.72,5.72,0,0,0-2.18.29.59.59,0,0,0-.28.56,17.2,17.2,0,0,0,1.07,3.11l.77,2,4.15,10.24,3.64-9.12c.14-.35.47-1.23,1-2.64a20.24,20.24,0,0,0,1.12-3.56c0-.36-.12-.58-.36-.65a12.22,12.22,0,0,0-2.2-.18l-.17-.17v-1.11l.18-.17c1.24.07,2.52.1,3.86.1.95,0,2.11,0,3.49-.1l.18.19Z" transform="translate(-10.71 -108.37)"/><path class="cls-1" d="M285.86,135.07l-.15.16c-2.42-.06-3.89-.09-4.39-.09q-3,0-5.61.09l-.15-.16v-1l.17-.18,1.43-.08c.6,0,.9-.25.9-.64a6.23,6.23,0,0,0-.46-1.54l-1.33-3.46q-2.26,0-4.62,0l-3.81,0-.72,2a12.42,12.42,0,0,0-.82,2.85c0,.41.26.66.77.74.29,0,.84.08,1.67.13l.17.16v1l-.17.16q-3-.09-3.9-.09-.68,0-3.33.09l-.16-.14V134l.18-.16c1.12-.07,1.82-.29,2.07-.67s1.22-2.66,2.9-6.84l4.28-10.7q.47-1.25,1.44-3.75h2.33l8.69,20.43c.34.78.64,1.22.92,1.32a4.81,4.81,0,0,0,1.55.19l.15.18Zm-10.39-8.82L272,117.67l-3.36,8.58c.89,0,2.06,0,3.49,0S274.6,126.29,275.47,126.25Z" transform="translate(-10.71 -108.37)"/><path class="cls-1" d="M145.27,154.4a14.53,14.53,0,0,1-1.49,6.72,10.57,10.57,0,0,1-4.45,4.55,14.42,14.42,0,0,1-6.93,1.56l-1,0a35.49,35.49,0,0,1,5,1.52l2.56.9a10.34,10.34,0,0,0,3.28.73,7.39,7.39,0,0,0,2.56-.76l.16.15v.88l-.13.23A31.63,31.63,0,0,0,141.5,173a27.83,27.83,0,0,1-6.25-1.43,28.86,28.86,0,0,0-6.1-1.44,8.1,8.1,0,0,0-3.08,1.43l-.25-.08-.26-.76.06-.24a16.24,16.24,0,0,1,1.58-1.17,26.65,26.65,0,0,1,3.62-2.16,10.71,10.71,0,0,1-7.52-3.38,12,12,0,0,1-2.92-8.47q0-5.72,3.36-9t9.39-3.29q7.38,0,10.53,5A11.81,11.81,0,0,1,145.27,154.4Zm-5.05.85a13.19,13.19,0,0,0-1.91-7.54,6.37,6.37,0,0,0-5.6-2.8q-4.87,0-6.46,4.38a14.5,14.5,0,0,0-.82,5,14.75,14.75,0,0,0,1.87,8,6.42,6.42,0,0,0,5.79,3q4.66,0,6.28-4.61A16.74,16.74,0,0,0,140.22,155.25Z" transform="translate(-10.71 -108.37)"/><path class="cls-1" d="M175.42,144.65l-.16.17c-1.29,0-2,.34-2.18,1a15.86,15.86,0,0,0-.2,2.49c0,.95,0,2.32,0,4.11v5.05q0,4.86-1.92,6.95-2.53,2.75-7.25,2.75a13.19,13.19,0,0,1-6.7-1.43,5.63,5.63,0,0,1-2.66-3.44,40,40,0,0,1-.39-7.44v-4.22a35.06,35.06,0,0,0-.22-5.08.71.71,0,0,0-.55-.61,18.46,18.46,0,0,0-1.92-.16l-.17-.17v-1.1l.17-.16c1.05.07,2.73.1,5.05.1s4,0,5-.1l.17.16v1.1l-.17.17a18.46,18.46,0,0,0-1.92.16.71.71,0,0,0-.55.61,35.06,35.06,0,0,0-.22,5.08V154q0,6.19.56,7.59,1.11,2.75,5.49,2.75a6.56,6.56,0,0,0,4.48-1.41,4.06,4.06,0,0,0,1.05-1.36,8,8,0,0,0,.46-2.13,24.39,24.39,0,0,0,.15-2.72v-3.41c0-2.86,0-4.81,0-5.86a7.3,7.3,0,0,0-.19-1.92,1,1,0,0,0-.58-.51,8.91,8.91,0,0,0-2-.24l-.17-.17v-1.1l.17-.16c1,.07,1.92.1,2.93.1.75,0,2.2,0,4.35-.1l.16.16Z" transform="translate(-10.71 -108.37)"/><path class="cls-1" d="M205,166.45l-.14.16c-2.43-.07-3.89-.1-4.4-.1-2,0-3.88,0-5.61.1l-.14-.16v-1l.16-.18,1.43-.08c.6,0,.9-.25.9-.64a5.9,5.9,0,0,0-.46-1.54l-1.33-3.46q-2.26,0-4.62,0l-3.81,0-.72,2a13,13,0,0,0-.82,2.85c0,.42.26.67.77.74.29.05.84.09,1.68.13l.16.17v1l-.16.16c-2-.07-3.33-.1-3.91-.1s-1.55,0-3.33.1l-.16-.15V165.4l.18-.17c1.13-.06,1.82-.29,2.08-.67s1.22-2.66,2.89-6.83l4.28-10.7,1.44-3.75h2.33l8.69,20.43c.34.77.65,1.21.92,1.31a4.79,4.79,0,0,0,1.56.2l.14.18Zm-10.39-8.82L191.06,149l-3.36,8.59c.89,0,2.06.05,3.49.05S193.7,157.66,194.57,157.63Z" transform="translate(-10.71 -108.37)"/><path class="cls-1" d="M232.62,166.45l-.16.16-.62,0c-1.5-.05-2.44-.08-2.81-.08-.56,0-1.44,0-2.65.1a4.9,4.9,0,0,0-.63-1.31l-4.06-6.79-1.82-2.77a4.73,4.73,0,0,0-1-1l.18-.56h.56a5.22,5.22,0,0,0,2.52-.5,4.36,4.36,0,0,0,1.54-1.61,5.13,5.13,0,0,0,.71-2.74,3.71,3.71,0,0,0-2.07-3.73,6.93,6.93,0,0,0-2.87-.46,8.91,8.91,0,0,0-1.57.13c-.11,1.07-.17,2.9-.17,5.47v8.57a36.65,36.65,0,0,0,.22,5.08.71.71,0,0,0,.56.61,17.8,17.8,0,0,0,1.91.16l.17.17v1.1l-.15.16c-1.09-.07-2.78-.1-5.05-.1s-4,0-5,.1l-.16-.15v-1.11l.16-.17a18.46,18.46,0,0,0,1.92-.16.74.74,0,0,0,.56-.61,37.25,37.25,0,0,0,.21-5.08v-8.66a37.25,37.25,0,0,0-.21-5.08.74.74,0,0,0-.56-.61,18.46,18.46,0,0,0-1.92-.16l-.16-.17v-1.11l.16-.15c1.07.07,2.75.1,5,.1,1.33,0,2.42,0,3.25-.05,1.65-.07,2.88-.1,3.7-.1a12.54,12.54,0,0,1,4.17.51,3.86,3.86,0,0,1,2.39,2.33,5.37,5.37,0,0,1,.3,1.9c0,3-1.68,5.08-5,6.32.55.92,1.12,1.85,1.74,2.79l2.52,3.88a18.37,18.37,0,0,0,3,3.92,1.94,1.94,0,0,0,1.05.24l.16.17Z" transform="translate(-10.71 -108.37)"/><path class="cls-1" d="M258.18,143.49A17,17,0,0,0,258,146l0,2.73-.17.17h-1l-.18-.15a17,17,0,0,0-.18-2.46,1.12,1.12,0,0,0-1-.77c-.22,0-1.25-.05-3.08-.05h-2.2q0,.57,0,4.56v9.3a37.25,37.25,0,0,0,.21,5.08.72.72,0,0,0,.56.61,17.83,17.83,0,0,0,1.92.16l.16.17v1.1l-.16.16c-1.09-.07-2.77-.1-5.05-.1s-4,0-5,.1l-.15-.15v-1.11l.16-.17a17.83,17.83,0,0,0,1.92-.16.72.72,0,0,0,.56-.61,37.25,37.25,0,0,0,.21-5.08V150c0-2.7,0-4.22-.05-4.56h-2.34a16.81,16.81,0,0,0-3.43.18.79.79,0,0,0-.36.25,3.28,3.28,0,0,0-.25,1c-.07.58-.12,1.17-.14,1.78l-.17.17h-1l-.18-.17,0-2.8a18.94,18.94,0,0,0-.2-2.44l.15-.17q1,.17,7.05.17H251q5.61,0,7-.17Z" transform="translate(-10.71 -108.37)"/><path class="cls-1" d="M283.22,160.83q-.35,3-.53,5.63l-.16.15q-6.73-.13-10.23-.13-2.57,0-9.07.13l-.16-.15v-1.14q1.21-1.53,3.7-5.07l2.4-3.41,3.06-4.5q1.53-2.24,4.56-6.9h-4.11a37.62,37.62,0,0,0-5.5.23.89.89,0,0,0-.59.66c0,.14-.13.65-.28,1.52l-.13.82-.18.17h-1l-.16-.2c.07-1.16.11-2.2.11-3.13,0-.3,0-1,0-2l.16-.16q2.24.11,9.94.1,1.82,0,7.92-.1l.16.16v1l-1.34,1.88c-1.41,2-2.62,3.66-3.64,5.15l-4.85,7.11q-.82,1.2-3.82,5.86c.57,0,1.46,0,2.64,0,5.54,0,8.49-.16,8.85-.46a7,7,0,0,0,.75-2.52c.07-.32.13-.58.19-.79l.18-.17h1Z" transform="translate(-10.71 -108.37)"/><path class="cls-2" d="M115,164.93a3.87,3.87,0,0,1-.4.41,26.31,26.31,0,0,1-8.2,4.69,31.84,31.84,0,0,1-8.85,1.77,44.07,44.07,0,0,1-4.74,0c-1.37-.07-2.75-.24-4.1-.44a28.79,28.79,0,0,1-3.2-.65,36.82,36.82,0,0,1-7.68-2.76,25.18,25.18,0,0,1-5-3.49,49.86,49.86,0,0,1-7.52-8.06c-.72-1-1.44-2-2.14-3.08a.56.56,0,0,0-.76-.27c-3.16,1-6.42.82-9.66.67-1.38-.06-2.75-.2-4.13-.28a6.7,6.7,0,0,0-1,.09c0,1.14,0,2.26,0,3.37,0,2.57-.06,5.14,0,7.72a5,5,0,0,0,.41,2.25,5.54,5.54,0,0,0,1.75,1.92c1.11.77,2.38,1.34,3.55,2a3.66,3.66,0,0,1,.67.69,3,3,0,0,1-1,.44c-1.37.05-2.76,0-4.14,0l-5,0-9.51-.08c-1.11,0-2.23,0-3.34,0-.45,0-1.1.05-1.17-.5,0-.23.55-.61.92-.79a17.81,17.81,0,0,0,4.23-2.65,3.09,3.09,0,0,0,1.2-2.32c0-2,0-3.95,0-5.92,0-1.62,0-3.23.05-4.85q0-15.94,0-31.9c0-2.39,0-4.78.08-7.18a.85.85,0,0,0-.52-.89,21.86,21.86,0,0,0-9-2.74,25.89,25.89,0,0,0-6.63.44,45.22,45.22,0,0,0-8.83,2.83l-.55.2a1.71,1.71,0,0,1-.11-.14c.72-.57,1.43-1.16,2.17-1.71a25.66,25.66,0,0,1,9.62-4.3,49.78,49.78,0,0,1,5.29-.85,34.5,34.5,0,0,1,8.37.29,41.67,41.67,0,0,1,9.28,2.4A24.18,24.18,0,0,1,54,116.69a60.83,60.83,0,0,1,4.76,5,39.86,39.86,0,0,1,3.15,4.85c1.4,2.37,2.73,4.78,4.07,7.17,2,3.64,4,7.32,6.13,10.91,1.83,3.13,3.84,6.17,5.77,9.24l.19-.07a1,1,0,0,0,.07-.29q.06-7.61.11-15.2l.09-13.95c0-2.21-.07-4.43.08-6.63.17-2.42-1.11-3.9-3.06-5-.9-.52-1.86-.95-2.76-1.46a3.24,3.24,0,0,1-.63-.65c.28-.15.56-.43.86-.44,1.23-.07,2.46-.08,3.69-.07,3.67,0,7.34.06,11,.1l6.36.08c.64,0,1.28,0,1.91,0,.22,0,.43.23.64.35-.14.19-.23.44-.41.54-.71.4-1.49.7-2.17,1.14-1,.65-2,1.37-2.91,2.09a2.74,2.74,0,0,0-1,2.35q-.11,12.6-.22,25.19l-.09,11.65c0,3.65-.06,7.3-.11,10.94a.87.87,0,0,0,.51.91,22.62,22.62,0,0,0,8.24,2.67,29.78,29.78,0,0,0,14.14-2.35l2-.81c.17-.07.36-.11.55-.17A.83.83,0,0,0,115,164.93Zm-67.26-15c4.44,0,8.84.69,13.33.34-4.44-7.73-8.84-15.42-13.33-23.25Z" transform="translate(-10.71 -108.37)"/></svg>