<svg id="Layer_1" data-name="Layer 1" xmlns="http://www.w3.org/2000/svg" viewBox="0 0 297.21 274.4"><defs><style>.cls-1{fill:#e79d51;}</style></defs><title>backgroundslider</title><path class="cls-1" d="M2.18,289.1A1.44,1.44,0,0,1,1.8,288c0-.7,0-1.41,0-2.11V81.54c0-1.16.09-2.33.14-3.49,2.12-1.31,4.25-2.59,6.35-3.92L38.06,55.27C50.89,47.16,63.77,39.14,76.54,31a103,103,0,0,1,25.92-12.12,88.34,88.34,0,0,1,13.64-3c.7-.09,1.37-.28,2.06-.42,1.21-.6,2.58.14,3.8-.43a.68.68,0,0,0,.4,0,128.24,128.24,0,0,1,18.07.16,97.44,97.44,0,0,1,22.79,5c8.28,2.83,15.86,7.06,23.39,11.44,8.85,5.16,17.76,10.23,26.64,15.34q12.81,7.38,25.63,14.78c8.66,5,17.36,10,26,15,9.74,5.63,19.54,11.17,29.23,16.89,1.66,1,3.61,1.52,4.8,3.19v0c.3.76-.4,1-.76,1.34-21,13.75-42.19,27.33-63.29,41Q217,150.57,199.23,162.14C185.66,171,172,179.67,158.49,188.57c-13.58,8.61-27,17.45-40.54,26.16-22.2,14.3-44.34,28.7-66.53,43Q42.21,263.66,33,269.65c-.42.33-.9.56-1.33.86-.16.13-.33.25-.5.37a11.23,11.23,0,0,0-1,.66,2.29,2.29,0,0,1-.55.31c-1.71.88-3.19,2.11-4.83,3.09l-.49.32-.24.16a5.09,5.09,0,0,1-.45.31,4,4,0,0,1-.45.26l-.43.25-.2.14c-.13.11-.26.2-.39.29a2.1,2.1,0,0,1-.42.22c-.13.08-.27.14-.41.21a3,3,0,0,1-.4.2,4.13,4.13,0,0,0-.58.33l-.34.28a2.26,2.26,0,0,1-.37.26l-.39.22-.38.24s-.17.14-.17.14a1.93,1.93,0,0,1-.36.28,2.42,2.42,0,0,1-.39.21c-.13.07-.26.14-.38.22l-.18.13-.34.28a1.81,1.81,0,0,1-.37.24l-.39.21-.37.25a3,3,0,0,1-.35.27,1.73,1.73,0,0,1-.38.24l-.38.24-.36.27a1.9,1.9,0,0,1-.37.26,2.87,2.87,0,0,1-.39.2l-.39.2a2.82,2.82,0,0,1-.38.21l-.39.21-.36.24c-.11.1-.23.19-.35.28a2,2,0,0,1-.39.25c-.13.09-.27.17-.41.25l-.39.31a4.7,4.7,0,0,1-.43.35,5,5,0,0,1-.47.33c-1.88,1.32-3.84,2.52-5.79,3.73C3.37,288.72,2.74,288.82,2.18,289.1Z" transform="translate(-1.79 -14.7)"/></svg>