<svg id="Layer_1" data-name="Layer 1" xmlns="http://www.w3.org/2000/svg" viewBox="0 0 272.1 95.1"><defs><style>.cls-1{fill:#2f3548;}.cls-2{fill:#e88823;fill-rule:evenodd;}</style></defs><title>footerlogo2</title><path class="cls-1" d="M23.2,133v9a3.18,3.18,0,0,0,.7,2.19,2.12,2.12,0,0,0,1.72.75h.72v2.75h-.78A5.29,5.29,0,0,1,21,145.79a6.73,6.73,0,0,1-1.92.92,7.35,7.35,0,0,1-2.18.36,5.48,5.48,0,0,1-4.35-1.69,6.67,6.67,0,0,1-1.36-4.49v-1.08a6.21,6.21,0,0,1,1.8-4.88,5.66,5.66,0,0,1,3.91-1.3,7.06,7.06,0,0,1,2.88.58V133Zm-6.76-2H13.61v-3.33h2.83Zm.78,5.32c-1.74,0-2.61,1-2.61,3v1.83c0,2.05.87,3.07,2.61,3.07A4,4,0,0,0,20,143.24a10.43,10.43,0,0,1-.14-1.91v-4.21A4,4,0,0,0,17.22,136.37ZM21,131.05H18.16v-3.33H21Z" transform="translate(-11.23 -123.9)"/><path class="cls-1" d="M32.93,133.93h2.44a5.76,5.76,0,0,1,4.49,1.66A6.37,6.37,0,0,1,41.22,140v1.69a6,6,0,0,1-1.77,4.77,6,6,0,0,1-4.08,1.28H25.81V145h9.56a2.24,2.24,0,0,0,1.94-.91,3.49,3.49,0,0,0,.53-2v-2.41a3.26,3.26,0,0,0-.69-2.24,2.38,2.38,0,0,0-1.78-.7H29v-1.08a3.6,3.6,0,0,1,.28-1.49,7.48,7.48,0,0,1,1.08-1.64l3.74-4.54h3.77Z" transform="translate(-11.23 -123.9)"/><path class="cls-1" d="M53.94,147.71h-2.1a8.45,8.45,0,0,1-.86-.06,14.9,14.9,0,0,1-.28,3.24,6,6,0,0,1-1,2.17A4.07,4.07,0,0,1,48,154.41a5.76,5.76,0,0,1-2.44.5,8.23,8.23,0,0,1-3.82-.86l1-2.52a5.21,5.21,0,0,0,2.27.53,2.17,2.17,0,0,0,2-.92,6,6,0,0,0,.59-3.07V133.9H51v10.95a2.28,2.28,0,0,0,.75.11h2.21Z" transform="translate(-11.23 -123.9)"/><path class="cls-1" d="M83.3,147.71H79.58a2.45,2.45,0,0,1-2.27-.89,6.18,6.18,0,0,1-4,1.19,5.07,5.07,0,0,1-4.08-1.61A5.34,5.34,0,0,1,65,148a5.28,5.28,0,0,1-4.36-1.75,5.36,5.36,0,0,1-4,1.45H53.44V145h3.19a2.24,2.24,0,0,0,1.94-.91,3.41,3.41,0,0,0,.56-2v-8.09h3.38v8.4a3.29,3.29,0,0,0,.69,2.25,2.36,2.36,0,0,0,1.78.69,2.24,2.24,0,0,0,1.93-.92,3.38,3.38,0,0,0,.53-2v-8.4h3.38v8.43a3.1,3.1,0,0,0,.72,2.22,2.31,2.31,0,0,0,1.78.69,2.29,2.29,0,0,0,1.94-.89,3.46,3.46,0,0,0,.52-2v-8.43h3.39V142a8.22,8.22,0,0,1-.45,2.8,1.67,1.67,0,0,0,.83.16H83.3ZM68.38,131.44H65.56v-3.33h2.82Zm2.19-4.58H68v-3h2.6Zm2.36,4.58H70.1v-3.33h2.83Z" transform="translate(-11.23 -123.9)"/><path class="cls-1" d="M90.45,127.92v13.74a5.3,5.3,0,0,1-5.85,6.05H82.77V145H84.6a2.21,2.21,0,0,0,1.91-.91,3.41,3.41,0,0,0,.56-2v-14.1Z" transform="translate(-11.23 -123.9)"/><path class="cls-1" d="M113.78,147.71H111.6c-1.24,0-2-.35-2.39-1a6.59,6.59,0,0,1-3.88,1H99.57V145h5.76a2.3,2.3,0,0,0,2-.91,3.48,3.48,0,0,0,.56-2.11,5.31,5.31,0,0,0-1.69-4.35,7.12,7.12,0,0,0-3.77-1.36l1.33-2.6c2.79.29,4.81,1.31,6.07,3a8.57,8.57,0,0,1,1.44,5.13,5.42,5.42,0,0,1-.7,2.94,1.63,1.63,0,0,0,.95.22h2.21Z" transform="translate(-11.23 -123.9)"/><path class="cls-1" d="M132.72,147.71h-.78a5.13,5.13,0,0,1-3.41-1.14c-.9,1.51-2.55,2.27-4.93,2.27s-4-.76-4.94-2.27a5.18,5.18,0,0,1-3.54,1.14h-1.83V145h1.83a2.22,2.22,0,0,0,1.91-.91,3.41,3.41,0,0,0,.55-2v-2.21q0-6.18,6-6.18t6,6.18V142a3.15,3.15,0,0,0,.73,2.22A2.13,2.13,0,0,0,132,145h.72Zm-6.52-4.66v-3.63c0-2-.87-3-2.6-3s-2.64,1-2.64,3v3.63c0,2,.88,3,2.64,3S126.2,145.08,126.2,143.05Z" transform="translate(-11.23 -123.9)"/><path class="cls-1" d="M142.86,147.71h-2.69c-1.26,0-2-.35-2.35-1a6.45,6.45,0,0,1-3.8,1h-1.83V145H134a2.21,2.21,0,0,0,1.91-.91,3.41,3.41,0,0,0,.56-2v-8.09h3.38v7.73a6.12,6.12,0,0,1-.67,3.05,1.45,1.45,0,0,0,1,.25h2.69Zm-5.52-16.27h-2.82v-3.33h2.82Zm4.55,0h-2.83v-3.33h2.83Z" transform="translate(-11.23 -123.9)"/><path class="cls-1" d="M152.7,133.63a6.47,6.47,0,0,1,4.91,1.85,7.11,7.11,0,0,1,1.72,4.83,9.14,9.14,0,0,0-3.41,4.65h5.79v2.75h-6.35a5.62,5.62,0,0,1-2.69-.53,5.41,5.41,0,0,1-2.66.53h-7.68V145h7.13a9.31,9.31,0,0,0-3.38-4.65,6.65,6.65,0,0,1,2.19-5.24A6.72,6.72,0,0,1,152.7,133.63Zm0,2.77a3,3,0,0,0-2.27.94,3.91,3.91,0,0,0-1,2.44,10.26,10.26,0,0,1,3.1,4.68c.06.1.11.14.17.14s.1,0,.14-.14a9.28,9.28,0,0,1,3.13-4.68,3.83,3.83,0,0,0-1.25-2.69A3.06,3.06,0,0,0,152.7,136.4Z" transform="translate(-11.23 -123.9)"/><path class="cls-1" d="M180.61,147.71h-.77a5.11,5.11,0,0,1-3.41-1.14c-.91,1.51-2.55,2.27-4.94,2.27s-4-.76-4.93-2.27a5.2,5.2,0,0,1-3.55,1.14h-1.83V145H163a2.21,2.21,0,0,0,1.91-.91,3.41,3.41,0,0,0,.56-2v-2.21q0-6.18,6-6.18t6,6.18V142a3.19,3.19,0,0,0,.72,2.22,2.14,2.14,0,0,0,1.69.72h.72Zm-6.51-4.66v-3.63c0-2-.87-3-2.61-3s-2.63,1-2.63,3v3.63c0,2,.88,3,2.63,3S174.1,145.08,174.1,143.05Z" transform="translate(-11.23 -123.9)"/><path class="cls-1" d="M187.76,127.92v13.74a6,6,0,0,1-1.74,4.77,6.07,6.07,0,0,1-4.11,1.28h-1.82V145h1.82a2.23,2.23,0,0,0,1.92-.91,3.41,3.41,0,0,0,.55-2v-14.1Z" transform="translate(-11.23 -123.9)"/><path class="cls-1" d="M195.36,127.92v19.79H192V127.92Z" transform="translate(-11.23 -123.9)"/><path class="cls-1" d="M224.82,147.71h-2a3.94,3.94,0,0,1-1-.14,7.81,7.81,0,0,1-2.77,5.54,8.93,8.93,0,0,1-5.85,1.8,9,9,0,0,1-4.32-1,8.21,8.21,0,0,1-3.08-2.94,8.54,8.54,0,0,1-1.16-4.41,13.06,13.06,0,0,1,.63-4,11.08,11.08,0,0,1,1.75-3.37l2.38,1.61a9.51,9.51,0,0,0-1.63,5.41,5.78,5.78,0,0,0,1.86,4.54,5.73,5.73,0,0,0,7.59-.22,5.42,5.42,0,0,0,1.3-3.83v-18.7h3.36V144.8a1.72,1.72,0,0,0,.86.16h2.13Z" transform="translate(-11.23 -123.9)"/><path class="cls-1" d="M235,147.71H232.3c-1.25,0-2-.35-2.35-1a6.45,6.45,0,0,1-3.8,1h-1.83V145h1.83a2.21,2.21,0,0,0,1.91-.91,3.41,3.41,0,0,0,.56-2v-8.09H232v7.73a6.12,6.12,0,0,1-.67,3.05,1.45,1.45,0,0,0,1,.25H235Zm-7.65,5.68h-2.82v-3.33h2.82Zm4.55,0h-2.83v-3.33h2.83Z" transform="translate(-11.23 -123.9)"/><path class="cls-1" d="M241.59,133.93H244a5.78,5.78,0,0,1,4.49,1.66,6.37,6.37,0,0,1,1.36,4.38v1.69a5.92,5.92,0,0,1-1.78,4.77,6,6,0,0,1-4.07,1.28h-9.56V145H244a2.24,2.24,0,0,0,1.94-.91,3.49,3.49,0,0,0,.53-2v-2.41a3.27,3.27,0,0,0-.7-2.24,2.34,2.34,0,0,0-1.77-.7h-6.4v-1.08a3.78,3.78,0,0,1,.27-1.49,8.3,8.3,0,0,1,1.08-1.64l3.75-4.54h3.77Z" transform="translate(-11.23 -123.9)"/><path class="cls-1" d="M259.63,133.63a5.86,5.86,0,0,1,4.63,1.66,6.68,6.68,0,0,1,1.33,4.52V145h3v2.75h-3v.52a6.88,6.88,0,0,1-2,5.27,6.62,6.62,0,0,1-4.47,1.41,10.68,10.68,0,0,1-4.87-1.16l1.05-2.5a7.92,7.92,0,0,0,3.41.81q3.47,0,3.46-3.58v-.77h-3a5.31,5.31,0,0,1-4.16-1.61,6.58,6.58,0,0,1-1.44-4.57v-1.72Q253.65,133.63,259.63,133.63Zm0,2.74c-1.73,0-2.6,1-2.6,3v2.46c0,2.06.87,3.08,2.6,3.08h2.61v-5.54C262.24,137.39,261.37,136.37,259.63,136.37Z" transform="translate(-11.23 -123.9)"/><path class="cls-1" d="M275.74,127.92v13.74q0,3.26-1.75,4.77a6,6,0,0,1-4.1,1.28h-1.83V145h1.83a2.21,2.21,0,0,0,1.91-.91,3.41,3.41,0,0,0,.56-2v-14.1Z" transform="translate(-11.23 -123.9)"/><path class="cls-1" d="M283.33,127.92v19.79H280V127.92Z" transform="translate(-11.23 -123.9)"/><path class="cls-1" d="M135.18,188.36l-.12.14c-2-.06-3.14-.08-3.55-.08-1.62,0-3.13,0-4.53.08l-.12-.14v-.83l.14-.15,1.15-.06c.48,0,.73-.2.73-.52a5.2,5.2,0,0,0-.37-1.24l-1.08-2.79c-1.21,0-2.46,0-3.73,0l-3.07,0-.59,1.61a10.35,10.35,0,0,0-.66,2.3c0,.34.21.54.62.6.23,0,.68.07,1.36.1l.13.14v.84l-.13.14c-1.64-.06-2.69-.08-3.16-.08s-1.26,0-2.69.08l-.13-.12v-.86l.15-.14c.91,0,1.47-.23,1.67-.54s1-2.15,2.34-5.52l3.46-8.64c.25-.67.64-1.68,1.16-3H126l7,16.5c.28.63.52,1,.74,1.06a3.82,3.82,0,0,0,1.26.16l.12.15Zm-8.4-7.12L124,174.31l-2.71,6.93c.72,0,1.66,0,2.82,0S126.09,181.27,126.78,181.24Z" transform="translate(-11.23 -123.9)"/><path class="cls-1" d="M163.71,170.76l-.15.13A14.45,14.45,0,0,0,162,171a.59.59,0,0,0-.45.49,30.55,30.55,0,0,0-.17,4.1V181c0,4,.06,6.55.17,7.75l-.17.12c-1-.17-1.75-.29-2.26-.36q-3.56-4-12.12-14.54v8.66a30.55,30.55,0,0,0,.17,4.1.56.56,0,0,0,.45.49,14.13,14.13,0,0,0,1.55.14l.13.13v.9l-.13.12c-1-.06-2-.08-2.83-.08s-2,0-3.06.08l-.14-.12v-.9l.14-.13a14.45,14.45,0,0,0,1.55-.14.59.59,0,0,0,.45-.49,30.55,30.55,0,0,0,.17-4.1v-7a30.55,30.55,0,0,0-.17-4.1.59.59,0,0,0-.45-.49,14.45,14.45,0,0,0-1.55-.14l-.14-.13v-.9l.14-.12c.84,0,1.63.08,2.39.08,1.2,0,2.19,0,3-.08q4.77,6.36,11.21,13.62v-7.74a28.31,28.31,0,0,0-.18-4.1.56.56,0,0,0-.45-.49,14.13,14.13,0,0,0-1.55-.14l-.13-.13v-.9l.13-.12c1,0,1.93.08,2.82.08,1.14,0,2.17,0,3.08-.08l.13.12Z" transform="translate(-11.23 -123.9)"/><path class="cls-1" d="M192.09,178.64a10.21,10.21,0,0,1-2.85,7.66,10.35,10.35,0,0,1-7.56,2.7,9.67,9.67,0,0,1-7.11-2.55,9.51,9.51,0,0,1-2.58-7.09q0-6.36,4.86-8.81a12,12,0,0,1,5.44-1.11c3.08,0,5.48.8,7.19,2.42A8.87,8.87,0,0,1,192.09,178.64Zm-4.08.69a10.64,10.64,0,0,0-1.54-6.1A5.15,5.15,0,0,0,182,171a5,5,0,0,0-5.22,3.54,11.8,11.8,0,0,0-.67,4.06,12,12,0,0,0,1.51,6.46,5.21,5.21,0,0,0,4.68,2.45,5,5,0,0,0,5.07-3.72A13.37,13.37,0,0,0,188,179.33Z" transform="translate(-11.23 -123.9)"/><path class="cls-1" d="M220.15,170.78l-.13.13a4,4,0,0,0-1.18.22,1.42,1.42,0,0,0-.55.6,19.71,19.71,0,0,0-1.14,2.49l-.94,2.23-1.78,4.32c-1.53,3.7-2.55,6.31-3.08,7.82h-2l-6.08-14.73a10.26,10.26,0,0,0-1.35-2.65,2.84,2.84,0,0,0-1.61-.3l-.14-.15v-.87l.15-.15c.93,0,2.1.08,3.51.08,1.77,0,3.37,0,4.82-.08l.13.15v.89l-.12.13a4.51,4.51,0,0,0-1.76.24.46.46,0,0,0-.22.45,13.4,13.4,0,0,0,.86,2.51l.62,1.58,3.35,8.27,2.94-7.38c.12-.28.38-1,.8-2.13a15.78,15.78,0,0,0,.9-2.87c0-.29-.1-.47-.29-.53a10.33,10.33,0,0,0-1.78-.14l-.13-.13v-.9l.14-.14c1,0,2,.08,3.12.08.77,0,1.71,0,2.82-.08l.14.15Z" transform="translate(-11.23 -123.9)"/><path class="cls-1" d="M247.2,188.36l-.12.14c-2-.06-3.14-.08-3.55-.08-1.63,0-3.13,0-4.53.08l-.12-.14v-.83l.13-.15,1.16-.06c.48,0,.72-.2.72-.52a4.74,4.74,0,0,0-.37-1.24l-1.07-2.79c-1.22,0-2.46,0-3.74,0l-3.07,0-.58,1.61a10.35,10.35,0,0,0-.66,2.3c0,.34.2.54.62.6.23,0,.68.07,1.35.1l.13.14v.84l-.13.14c-1.63-.06-2.68-.08-3.15-.08s-1.26,0-2.69.08l-.13-.12v-.86l.14-.14q1.36-.07,1.68-.54t2.34-5.52l3.45-8.64,1.17-3h1.88l7,16.5c.27.63.52,1,.74,1.06a3.74,3.74,0,0,0,1.26.16l.12.15Zm-8.4-7.12L236,174.31l-2.72,6.93c.73,0,1.67,0,2.82,0S238.1,181.27,238.8,181.24Z" transform="translate(-11.23 -123.9)"/><path class="cls-1" d="M133.64,204a11.58,11.58,0,0,1-1.21,5.42,8.45,8.45,0,0,1-3.59,3.68,11.67,11.67,0,0,1-5.6,1.26l-.83,0a29.39,29.39,0,0,1,4.08,1.23l2.06.72a8.56,8.56,0,0,0,2.65.59,6.06,6.06,0,0,0,2.07-.61l.13.12v.71l-.1.19a28.48,28.48,0,0,0-2.71,1.73,22.08,22.08,0,0,1-5-1.15,23.24,23.24,0,0,0-4.93-1.17,6.62,6.62,0,0,0-2.49,1.16l-.2-.07-.21-.61,0-.2A13.23,13.23,0,0,1,119,216a20,20,0,0,1,2.93-1.74,8.72,8.72,0,0,1-6.08-2.73,11.1,11.1,0,0,1,.36-14.12c1.81-1.76,4.34-2.65,7.59-2.65q6,0,8.5,4A9.5,9.5,0,0,1,133.64,204Zm-4.08.69a10.66,10.66,0,0,0-1.54-6.1,5.15,5.15,0,0,0-4.53-2.26,5,5,0,0,0-5.21,3.54,11.57,11.57,0,0,0-.67,4.06,12,12,0,0,0,1.51,6.46,5.2,5.2,0,0,0,4.68,2.45,5,5,0,0,0,5.07-3.72A13.33,13.33,0,0,0,129.56,204.67Z" transform="translate(-11.23 -123.9)"/><path class="cls-1" d="M158,196.1l-.13.14c-1,0-1.63.27-1.76.83a14.49,14.49,0,0,0-.16,2c0,.77,0,1.88,0,3.32v4.08q0,3.93-1.55,5.61a7.58,7.58,0,0,1-5.85,2.23,10.65,10.65,0,0,1-5.42-1.16,4.6,4.6,0,0,1-2.15-2.78,32.41,32.41,0,0,1-.31-6V201a28.31,28.31,0,0,0-.18-4.1.56.56,0,0,0-.45-.49,12.56,12.56,0,0,0-1.55-.13l-.13-.14v-.88l.13-.14c.85.06,2.21.08,4.08.08s3.27,0,4.07-.08l.13.14v.88l-.13.14a12.81,12.81,0,0,0-1.55.13.56.56,0,0,0-.45.49,28.86,28.86,0,0,0-.17,4.1v2.73c0,3.33.15,5.38.45,6.13q.9,2.22,4.43,2.22a5.31,5.31,0,0,0,3.62-1.14,3.18,3.18,0,0,0,.85-1.1,6.52,6.52,0,0,0,.37-1.72,19.86,19.86,0,0,0,.12-2.2v-2.75q0-3.47,0-4.74a5.85,5.85,0,0,0-.16-1.54.77.77,0,0,0-.46-.42,7.52,7.52,0,0,0-1.63-.19l-.13-.14v-.88l.13-.14c.77.06,1.56.08,2.37.08.61,0,1.78,0,3.51-.08l.13.14Z" transform="translate(-11.23 -123.9)"/><path class="cls-1" d="M181.86,213.71l-.12.13-3.55-.08c-1.63,0-3.14,0-4.53.08l-.12-.13v-.84l.13-.14,1.15-.07c.49,0,.73-.2.73-.51a4.66,4.66,0,0,0-.37-1.25l-1.07-2.79c-1.22,0-2.46,0-3.74,0l-3.07,0-.58,1.61a10.22,10.22,0,0,0-.66,2.31c0,.33.2.53.62.59.23,0,.68.07,1.35.11l.13.13v.85l-.13.13c-1.63-.05-2.68-.08-3.15-.08s-1.26,0-2.69.08l-.13-.12v-.86l.14-.13c.91-.06,1.47-.24,1.68-.55s1-2.14,2.33-5.52l3.46-8.64,1.17-3h1.88l7,16.51c.27.62.52,1,.74,1.05a3.74,3.74,0,0,0,1.26.16l.12.15Zm-8.4-7.12-2.83-6.94-2.72,6.94c.72,0,1.66,0,2.82,0S172.76,206.61,173.46,206.59Z" transform="translate(-11.23 -123.9)"/><path class="cls-1" d="M204.2,213.71l-.14.13h-.5c-1.21-.05-2-.07-2.26-.07-.45,0-1.17,0-2.15.08a3.49,3.49,0,0,0-.5-1.06l-3.29-5.48-1.47-2.24a3.43,3.43,0,0,0-.78-.8l.15-.45h.45a4.31,4.31,0,0,0,2-.41,3.54,3.54,0,0,0,1.24-1.3,4.13,4.13,0,0,0,.57-2.21,3,3,0,0,0-1.67-3,5.78,5.78,0,0,0-2.31-.37,7.53,7.53,0,0,0-1.28.11c-.08.86-.13,2.34-.13,4.42V208a30.55,30.55,0,0,0,.17,4.1.59.59,0,0,0,.45.49,12,12,0,0,0,1.55.14l.14.13v.89l-.12.13c-.89-.05-2.25-.08-4.08-.08s-3.26,0-4.08.08l-.13-.12v-.9l.13-.13a11.76,11.76,0,0,0,1.55-.14.59.59,0,0,0,.45-.49,30.55,30.55,0,0,0,.17-4.1v-7a30.55,30.55,0,0,0-.17-4.1.59.59,0,0,0-.45-.49,12.81,12.81,0,0,0-1.55-.13l-.13-.14v-.9l.13-.12c.86.06,2.22.08,4.08.08,1.07,0,1.95,0,2.62,0,1.33-.05,2.33-.08,3-.08a10,10,0,0,1,3.37.42,3.11,3.11,0,0,1,1.93,1.88,4.39,4.39,0,0,1,.24,1.53q0,3.6-4.05,5.11c.44.74.91,1.49,1.4,2.25l2,3.14a14.48,14.48,0,0,0,2.4,3.16,1.53,1.53,0,0,0,.84.2l.14.13Z" transform="translate(-11.23 -123.9)"/><path class="cls-1" d="M224.84,195.16a14.89,14.89,0,0,0-.17,2l0,2.21-.13.13h-.83l-.15-.12a15.08,15.08,0,0,0-.14-2,.92.92,0,0,0-.85-.63c-.18,0-1,0-2.49,0h-1.78c0,.31,0,1.54,0,3.68V208a28.86,28.86,0,0,0,.17,4.1.56.56,0,0,0,.45.49,11.76,11.76,0,0,0,1.55.14l.13.13v.89l-.13.13c-.87-.05-2.23-.08-4.08-.08s-3.25,0-4.08.08l-.12-.12v-.9l.13-.13a11.76,11.76,0,0,0,1.55-.14.56.56,0,0,0,.45-.49,28.31,28.31,0,0,0,.18-4.1v-7.52c0-2.17,0-3.4,0-3.68h-1.9a13.21,13.21,0,0,0-2.77.15.6.6,0,0,0-.29.2,2.81,2.81,0,0,0-.2.85,13.15,13.15,0,0,0-.11,1.44l-.14.13h-.83l-.15-.13,0-2.26a17.2,17.2,0,0,0-.16-2L208,195c.52.09,2.42.13,5.69.13H219c3,0,4.91,0,5.69-.13Z" transform="translate(-11.23 -123.9)"/><path class="cls-1" d="M245.06,209.17c-.18,1.6-.32,3.12-.42,4.55l-.13.12q-5.44-.1-8.27-.11c-1.37,0-3.82,0-7.32.11l-.13-.12v-.93q1-1.23,3-4.09l1.93-2.75,2.48-3.64q1.23-1.8,3.68-5.57h-3.32a28.1,28.1,0,0,0-4.44.19.7.7,0,0,0-.48.53c0,.11-.11.52-.22,1.23l-.11.66-.14.13h-.81l-.13-.16c.06-.93.09-1.77.09-2.53,0-.23,0-.76,0-1.58l.14-.14c1.2.06,3.87.08,8,.08,1,0,3.11,0,6.4-.08l.13.14V196l-1.08,1.52q-1.71,2.35-2.94,4.16L237,207.43q-.67,1-3.09,4.74.7,0,2.13,0c4.48,0,6.86-.13,7.15-.37a5.48,5.48,0,0,0,.61-2c.06-.26.1-.47.15-.64l.14-.13h.8Z" transform="translate(-11.23 -123.9)"/><path class="cls-2" d="M109.2,212.87c-.11.11-.21.24-.32.34a21.38,21.38,0,0,1-6.63,3.78,25.66,25.66,0,0,1-7.15,1.43,37.65,37.65,0,0,1-3.83,0A31,31,0,0,1,88,218a20.71,20.71,0,0,1-2.58-.53,29.17,29.17,0,0,1-6.2-2.22,20,20,0,0,1-4-2.82A39.76,39.76,0,0,1,69.07,206c-.59-.83-1.17-1.65-1.74-2.48a.45.45,0,0,0-.61-.23c-2.55.84-5.18.66-7.8.55-1.12-.05-2.23-.17-3.34-.23a5.32,5.32,0,0,0-.82.07c0,.92,0,1.82,0,2.72,0,2.08,0,4.16,0,6.24a4.13,4.13,0,0,0,.33,1.82A4.67,4.67,0,0,0,56.48,216c.9.62,1.92,1.08,2.87,1.63a2.83,2.83,0,0,1,.53.56,2.49,2.49,0,0,1-.81.35c-1.11,0-2.22,0-3.34,0-1.35,0-2.69,0-4,0L44,218.43c-.9,0-1.8,0-2.7,0-.36,0-.89,0-.94-.41,0-.19.44-.49.74-.64a14.65,14.65,0,0,0,3.42-2.14,2.51,2.51,0,0,0,1-1.88c0-1.59,0-3.18,0-4.78,0-1.3,0-2.6,0-3.91q0-12.89,0-25.76c0-1.94,0-3.87.07-5.8a.71.71,0,0,0-.42-.73A17.8,17.8,0,0,0,38,170.16a21.36,21.36,0,0,0-5.35.35,37.29,37.29,0,0,0-7.13,2.29L25,173l-.08-.12c.58-.46,1.15-.94,1.74-1.38A20.71,20.71,0,0,1,34.48,168a38.35,38.35,0,0,1,4.27-.69,27.34,27.34,0,0,1,6.76.24,33.21,33.21,0,0,1,7.5,1.93,19.61,19.61,0,0,1,6.88,4.43A49,49,0,0,1,63.73,178a32,32,0,0,1,2.55,3.91c1.13,1.91,2.2,3.86,3.29,5.8,1.64,2.93,3.23,5.9,4.94,8.81,1.49,2.52,3.11,5,4.67,7.46l.15-.06a1.05,1.05,0,0,0,.06-.24q0-6.14.08-12.27c0-3.76,0-7.51.08-11.27,0-1.78-.06-3.57.06-5.35.14-2-.9-3.15-2.47-4.07-.73-.42-1.5-.77-2.23-1.18a2.52,2.52,0,0,1-.51-.52c.23-.12.46-.34.7-.36,1,0,2-.06,3,0l8.89.08c1.71,0,3.43,0,5.14.07.51,0,1,0,1.54,0,.18,0,.34.18.52.28-.11.15-.19.35-.34.44-.57.32-1.2.57-1.75.92-.81.52-1.58,1.1-2.35,1.69a2.21,2.21,0,0,0-.79,1.89q-.07,10.18-.17,20.35,0,4.69-.08,9.41c0,3,0,5.89-.09,8.84a.71.71,0,0,0,.41.73,18.3,18.3,0,0,0,6.66,2.16,24,24,0,0,0,11.42-1.9l1.61-.65a3.22,3.22,0,0,1,.44-.14ZM54.87,200.74c3.59,0,7.15.56,10.77.28L54.87,182.24Z" transform="translate(-11.23 -123.9)"/></svg>