<svg id="Layer_1" data-name="Layer 1" xmlns="http://www.w3.org/2000/svg" viewBox="0 0 276.03 249.66"><defs><style>.cls-1{fill:#fff;}</style></defs><title>logo-white</title><path class="cls-1" d="M10.83,273.73l4.79-15.91h3.74l4.79,15.91h-3l-1-3.48h-5.5l-1,3.48Zm4.57-6h4l-2-7.12Z" transform="translate(-10.75 -24.34)"/><path class="cls-1" d="M24.84,270.14l2.71-1.2a5.24,5.24,0,0,0,1.4,1.85,3,3,0,0,0,1.84.58,3,3,0,0,0,1.89-.54,1.8,1.8,0,0,0,.69-1.48,1.64,1.64,0,0,0-.51-1.23,5.54,5.54,0,0,0-1.85-1l-.52-.19a17.58,17.58,0,0,1-3.26-1.46A3.84,3.84,0,0,1,25.84,264a4.25,4.25,0,0,1-.48-2,3.89,3.89,0,0,1,1.44-3.13,5.64,5.64,0,0,1,3.75-1.2,6,6,0,0,1,3.38.88,5,5,0,0,1,2,2.59l-2.72,1A4,4,0,0,0,32,260.56a2.88,2.88,0,0,0-1.69-.48,2.41,2.41,0,0,0-1.54.45,1.51,1.51,0,0,0-.56,1.24c0,.8.92,1.56,2.75,2.28l1.32.54a8.13,8.13,0,0,1,3.13,2,4.08,4.08,0,0,1,.83,2.65,4.38,4.38,0,0,1-1.44,3.47,5.85,5.85,0,0,1-4,1.26,6.8,6.8,0,0,1-3.71-1A5.87,5.87,0,0,1,24.84,270.14Z" transform="translate(-10.75 -24.34)"/><path class="cls-1" d="M38.93,273.73V257.82H49.26v2.59H41.91v3.76h5.35v2.54H41.91V271h7.67v2.71Z" transform="translate(-10.75 -24.34)"/><path class="cls-1" d="M52,273.73V257.82h5.39A7.15,7.15,0,0,1,61.9,259a4.29,4.29,0,0,1,1.48,3.59,4.22,4.22,0,0,1-.76,2.58,3.88,3.88,0,0,1-2.18,1.43L64,273.73H60.75l-3.07-6.45H55v6.45Zm2.93-9h2.6a3.42,3.42,0,0,0,2.13-.54,2.42,2.42,0,0,0,0-3.34,3.42,3.42,0,0,0-2.13-.54H55Z" transform="translate(-10.75 -24.34)"/><path class="cls-1" d="M71.56,273.73l4.8-15.91H80.1l4.79,15.91h-3l-1-3.48H75.42l-1,3.48Zm4.58-6h4l-2-7.12Z" transform="translate(-10.75 -24.34)"/><path class="cls-1" d="M86.74,273.73V257.82h3V271h6.71v2.71Z" transform="translate(-10.75 -24.34)"/><path class="cls-1" d="M98.75,273.73V257.82h4.86a7.29,7.29,0,0,1,5.57,2q1.89,2,1.89,5.9t-1.9,6c-1.26,1.34-3.16,2-5.68,2Zm3-2.63h1.64a4.45,4.45,0,0,0,3.54-1.26,6.27,6.27,0,0,0,1.09-4.12,5.86,5.86,0,0,0-1.13-4,4.54,4.54,0,0,0-3.55-1.27h-1.59Z" transform="translate(-10.75 -24.34)"/><path class="cls-1" d="M114.05,273.73V257.82h3v15.91Z" transform="translate(-10.75 -24.34)"/><path class="cls-1" d="M119.23,273.73l4.8-15.91h3.74l4.79,15.91h-3l-1-3.48h-5.49l-1,3.48Zm4.58-6h4l-2-7.12Z" transform="translate(-10.75 -24.34)"/><path class="cls-1" d="M132.74,273.73l4.8-15.91h3.74l4.78,15.91h-3l-1-3.48H136.6l-1,3.48Zm4.57-6h4.05l-2-7.12Z" transform="translate(-10.75 -24.34)"/><path class="cls-1" d="M154.57,273.73V257.82h10v2.59h-7v3.74h5.31v2.58h-5.31v7Z" transform="translate(-10.75 -24.34)"/><path class="cls-1" d="M166,265.81a9.38,9.38,0,0,1,1.75-6,6.54,6.54,0,0,1,9.71,0,11.18,11.18,0,0,1,0,12,6.5,6.5,0,0,1-9.7,0A9.34,9.34,0,0,1,166,265.81Zm3,0a7.6,7.6,0,0,0,.9,4.1,3.24,3.24,0,0,0,5.33,0,7.6,7.6,0,0,0,.9-4.1,7.74,7.74,0,0,0-.9-4.13,3.22,3.22,0,0,0-5.33,0A7.74,7.74,0,0,0,169,265.81Z" transform="translate(-10.75 -24.34)"/><path class="cls-1" d="M181.78,273.73V257.82h5.38a7.16,7.16,0,0,1,4.5,1.17,5,5,0,0,1,.72,6.17,3.91,3.91,0,0,1-2.18,1.43l3.52,7.14h-3.21l-3.07-6.45H184.7v6.45Zm2.92-9h2.61a3.39,3.39,0,0,0,2.12-.54,2.39,2.39,0,0,0,0-3.34,3.39,3.39,0,0,0-2.12-.54H184.7Z" transform="translate(-10.75 -24.34)"/><path class="cls-1" d="M203,273.73V257.82h4.28l2.3,7.73c.21.69.39,1.37.54,2s.26,1.31.34,1.93c.13-.59.27-1.2.44-1.82s.36-1.32.59-2.1l2.34-7.77H218v15.91h-2.57V260.39c-.13.59-.28,1.18-.44,1.76s-.32,1.17-.5,1.75l-2.9,9.83h-2.19l-2.83-9.83c-.29-1-.5-1.77-.62-2.25s-.23-.89-.32-1.26v13.34Z" transform="translate(-10.75 -24.34)"/><path class="cls-1" d="M219.84,273.73l4.8-15.91h3.74l4.78,15.91h-3l-1-3.48H223.7l-1,3.48Zm4.57-6h4.05l-2-7.12Z" transform="translate(-10.75 -24.34)"/><path class="cls-1" d="M235,273.73V257.82h5.39a7.2,7.2,0,0,1,4.5,1.17,4.31,4.31,0,0,1,1.47,3.59,4.22,4.22,0,0,1-.76,2.58,3.84,3.84,0,0,1-2.18,1.43l3.53,7.14h-3.22l-3.06-6.45H238v6.45Zm2.93-9h2.61a3.39,3.39,0,0,0,2.12-.54,2.39,2.39,0,0,0,0-3.34,3.39,3.39,0,0,0-2.12-.54H238Z" transform="translate(-10.75 -24.34)"/><path class="cls-1" d="M249.52,273.73V257.82h5.77a6.31,6.31,0,0,1,4,1.08,3.77,3.77,0,0,1,1.37,3.14,3.36,3.36,0,0,1-.56,2,4.57,4.57,0,0,1-1.76,1.4,3.92,3.92,0,0,1,2,1.42,4.19,4.19,0,0,1,.67,2.45,4,4,0,0,1-1.45,3.36,7.3,7.3,0,0,1-4.42,1.1Zm2.93-9.54h2.45a3.6,3.6,0,0,0,2.09-.49,1.68,1.68,0,0,0,.7-1.48,1.65,1.65,0,0,0-.7-1.49,4.2,4.2,0,0,0-2.26-.46h-2.28Zm0,7.1h2.45a3.81,3.81,0,0,0,2.36-.58,2.51,2.51,0,0,0,0-3.56,3.64,3.64,0,0,0-2.24-.58h-2.59Z" transform="translate(-10.75 -24.34)"/><path class="cls-1" d="M264.06,273.73V257.82h3V271h6.71v2.71Z" transform="translate(-10.75 -24.34)"/><path class="cls-1" d="M276.13,273.73V257.82h10.33v2.59h-7.35v3.76h5.36v2.54h-5.36V271h7.67v2.71Z" transform="translate(-10.75 -24.34)"/><path class="cls-1" d="M28.27,232.92H18.92a7.86,7.86,0,0,0-5.74,2.16,8.68,8.68,0,0,0-2.43,6.56v11.58h4.53V242.36c0-3.31,1.28-5,3.84-5h2.1a8.08,8.08,0,0,0-.53,3.05,6.94,6.94,0,0,0,7.41,7.44,7.79,7.79,0,0,0,5.54-2,7.16,7.16,0,0,0,2.13-5.47,7.08,7.08,0,0,0-7.5-7.51Zm.06,11.24H28A2.41,2.41,0,0,1,25.84,243a4.63,4.63,0,0,1-.66-2.52,4.37,4.37,0,0,1,.72-2.59,2.91,2.91,0,0,1,4.63-.07,4.14,4.14,0,0,1,.72,2.53C31.25,242.89,30.27,244.16,28.33,244.16Z" transform="translate(-10.75 -24.34)"/><path class="cls-1" d="M60,232.56A10.82,10.82,0,0,0,51.91,236c1.08,1.48,1.84,2.49,2.3,3.12a8.26,8.26,0,0,1,5.5-2.36,6.78,6.78,0,0,1,6.86,6.59H47.65c-3.38,0-3.94-1.18-3.94-3.41V226.62H39.12v15.74c0,3.38,2,5.41,5.54,5.41H71.45v-1.51C71.45,237.7,67.55,232.59,60,232.56Z" transform="translate(-10.75 -24.34)"/><rect class="cls-1" x="47.12" y="202.31" width="4.1" height="3.77"/><path class="cls-1" d="M106.28,240.16c0,2.14-.79,3.22-2.33,3.22H96.57a9.78,9.78,0,0,0,.56-3.31V226.65H92.51v13.58c0,2.1-.79,3.15-2.33,3.15H83.36V232.92H78.73v12.23c0,2.88-1.5,4.33-4.52,4.33v3.7c5.21,0,8.16-1.8,8.92-5.41H104.9a5.46,5.46,0,0,0,4.53-2,6.57,6.57,0,0,0,1.44-4.33V226.65h-4.59Z" transform="translate(-10.75 -24.34)"/><path class="cls-1" d="M128,241c0-1.41.62-2.46,1.94-2.46.88,0,1.5.59,1.9,1.74l3.8-1.77c-1.15-2.65-3-4-5.67-4a6.39,6.39,0,0,0-6.4,6.66,7.57,7.57,0,0,0,.37,2.2h-3.28v4.39h15v-4.39H129A2.51,2.51,0,0,1,128,241Z" transform="translate(-10.75 -24.34)"/><rect class="cls-1" x="137.04" y="225.07" width="4.07" height="3.8"/><rect class="cls-1" x="143.21" y="225.07" width="4.07" height="3.8"/><rect class="cls-1" x="169.73" y="202.31" width="4.1" height="3.77"/><path class="cls-1" d="M200.23,240.16c0,2.14-.79,3.22-2.33,3.22h-5.61c-.42-6.72-3.57-10.53-8.95-10.53-3.67,0-7.47,2.2-10.36,5.87v-4.23h-4.59v5.74c0,2.36-.82,3.15-2.33,3.15H158a9.78,9.78,0,0,0,.53-3.31v-7.15h-4.63v7.31c0,2.1-.75,3.15-2.29,3.15H147.8c-3.38,0-3.94-1.18-3.94-3.41V226.62h-4.59v15.74c0,3.38,2,5.41,5.54,5.41h54a5.46,5.46,0,0,0,4.53-2,6.57,6.57,0,0,0,1.44-4.33V226.65h-4.59Zm-26.17,3.22c2.53-4.33,5.54-6.53,8.92-6.53,3.08,0,4.53,3,4.53,6.53Z" transform="translate(-10.75 -24.34)"/><rect class="cls-1" x="197.41" y="202.28" width="4.59" height="21.15"/><path class="cls-1" d="M278.93,243.38c-1.21-.49-1.83-1.64-1.83-3.38a4,4,0,0,1,.69-2.43,2.39,2.39,0,0,1,2.13-1.11,2.54,2.54,0,0,1,2.62,1.93l3.77-1.73a6.76,6.76,0,0,0-6.29-4.17,7,7,0,0,0-5.35,2.26,7.85,7.85,0,0,0-2.06,5.48,9.09,9.09,0,0,0,.65,3.15h-8c-.43-6.72-3.57-10.53-9-10.53-3.67,0-7.48,2.2-10.36,5.87v-4.23h-4.59v5.74c0,2.36-.82,3.15-2.33,3.15h-7.25V232.92h-4.62v12.23c0,2.88-1.51,4.33-4.53,4.33v3.7c5.22,0,8.17-1.8,8.92-5.41h55v-4.39Zm-18.43,0H247.06c2.52-4.33,5.54-6.53,8.92-6.53,2.88,0,4.56,2.56,4.56,5.94Z" transform="translate(-10.75 -24.34)"/><path class="cls-1" d="M247.62,104.47c21.61-.44,38.78,15.89,39.16,37.23.36,20.62-16.86,38.34-37.65,38.94a39.1,39.1,0,0,1-20.24-4.91c-13.73-7.48-27.87-13.92-43.22-17.35a100,100,0,0,0-20.08-2.49c-2.38,0-4.26-.83-5.37-2.81-.53-.94,2.91-4.34,4.63-4.78,15.27-3.85,28.81-11.11,41.05-20.91,6.22-5,12.1-10.4,18.71-14.89,7-4.72,14.42-8,23-8m1.75,62a22.54,22.54,0,0,0,21-14.94A22.93,22.93,0,0,0,264,125.7c-6.92-6.2-16.86-7.32-25.77-2.89a53.29,53.29,0,0,0-9.87,6.93C219.16,137.31,209.49,144,197.7,147a5,5,0,0,0-1.73.88c-1.74,1.34-1.57,2.21.4,3.06,2.5,1.08,5.17.77,7.76,1.08,11.2,1.33,21.36,5.58,31.1,11a25.91,25.91,0,0,0,14.14,3.51" transform="translate(-10.75 -24.34)"/><path class="cls-1" d="M126.42,157.26a111.13,111.13,0,0,0-42.11,11.31c-7,3.4-14,6.92-21.35,9.45-16.84,5.77-34.7.69-44.77-12.74C1.18,142.61,15,109.17,43,105c13.4-2,24.64,2,34.48,11.15,14.3,13.35,29.9,24.8,48.59,31.41,2.3.81,4.62,1.59,7,2.19a5.89,5.89,0,0,1,4.19,3.76c.37.95-3.53,3.6-5.21,3.66s-3.56.08-5.64.13M25.83,142.8a22.76,22.76,0,0,0,22.87,22c6.12-.06,11.5-2.39,16.83-5,10.76-5.33,21.85-9.55,34.08-9.78a4.41,4.41,0,0,0,1.89-.45c1.54-.81,2.24-1.68.29-3a22.22,22.22,0,0,0-5.71-2.31c-11.65-3.89-21.14-11.12-30.2-19.15-7.79-6.9-16.82-8.49-26.46-4.48C31,124.12,25.6,133.28,25.83,142.8" transform="translate(-10.75 -24.34)"/><path class="cls-1" d="M228.73,61.88c-.41,15-6.25,26.74-19.16,34.44C195.08,105,181.29,114.47,170,127.15a95.47,95.47,0,0,0-10.33,13.7,5.81,5.81,0,0,1-5,3.09c-1.16,0-2.44-4.5-1.89-6.33,5.34-17.74,5.18-35.66,2-53.75-1.6-9-3-18.14-1.53-27.39,2.9-18.09,19.26-32.34,37-32.12,19.68.24,35.37,13.77,38,32.76.23,1.67.42,3.35.59,4.77M214.85,62c-.68-9.13-5.25-15.76-13.23-19.89s-15.9-3.44-23.18,1.61c-9.13,6.32-10.93,15.62-9.61,25.94.54,4.18,1.27,8.34,1.65,12.54.82,9,.68,18-2.06,26.75-.37,1.16-.42,2.6.75,3.35s2.14-.55,2.76-1.27c2.07-2.41,3.85-5.07,5.89-7.51,6.84-8.18,15.45-14.15,24.55-19.53,8.31-4.91,12.09-12.48,12.48-22" transform="translate(-10.75 -24.34)"/><path class="cls-1" d="M60.37,64.51c.35-12.76,7.26-24.36,21-31.29s27.41-5.38,39.78,3.65C132.73,45.3,138,57,136.89,71.36c-1.27,15.86-1.67,31.68,1.45,47.39a104.69,104.69,0,0,0,5.37,18.36c.14.35.28.7.43,1,.89,2,1.06,4.71-.71,5.57s-4.29.07-5.77-1.86c-11.79-15.36-27.24-25.85-44.53-34-8.07-3.81-16-8-22.21-14.63C64.13,86,60.66,77.3,60.37,64.51m38.72-21A23.26,23.26,0,0,0,77.21,59.13C74,68.61,77,78.37,85.07,84.79a49.38,49.38,0,0,0,8.85,5.44c11,5.56,21.54,11.85,29.24,21.89.79,1,2,2.08,3.37,1.44s.65-2.17.5-3.28a17.54,17.54,0,0,0-.94-3.23,62.54,62.54,0,0,1-2.39-8.38c-2-9.66-1.78-19.38-.88-29.13,1.28-13.82-10.14-26.34-23.73-26" transform="translate(-10.75 -24.34)"/><path class="cls-1" d="M281.48,187.43H204C200,175.84,178.77,167,147.67,167s-51.19,8.73-56.32,20.48H16.06c-1.78,0-3.22.94-3.22,2.1v18.25c0,1.16,1.44,2.1,3.22,2.1H281.48c1.78,0,3.22-.94,3.22-2.1V189.53c0-1.16-1.44-2.1-3.22-2.1M147.67,170.7a2.19,2.19,0,1,1-2.19,2.19,2.19,2.19,0,0,1,2.19-2.19m0,28.31c-16.1,0-30.64-2.66-30.64-8.37s14.54-10.35,30.64-10.35,30.63,4.63,30.63,10.35S163.76,199,147.67,199" transform="translate(-10.75 -24.34)"/></svg>