<svg id="Layer_1" data-name="Layer 1" xmlns="http://www.w3.org/2000/svg" viewBox="0 0 22.61 24.08"><defs><style>.cls-1{fill:#e18525;}</style></defs><title>phone</title><path class="cls-1" d="M12.7,24.44a10.81,10.81,0,0,1-5.64-1.61l-3.5-3.36A12.4,12.4,0,0,1,1.39,12.4c0-6.64,5.07-12,11.31-12S24,5.76,24,12.4,18.93,24.44,12.7,24.44ZM7.26,20.86l.34.22a9.15,9.15,0,0,0,5.1,1.57c5.3,0,9.62-4.6,9.62-10.25S18,2.15,12.7,2.15,3.08,6.75,3.08,12.4a10.54,10.54,0,0,0,2,6.3l.24.32Z" transform="translate(-1.39 -0.36)"/><path class="cls-1" d="M7,7.77s.66-1.23,1.2-1.3,1.24-.07,1.43.3,1,2.57,1,2.57a.92.92,0,0,1-.08.74,7.31,7.31,0,0,1-.72.89.71.71,0,0,0,0,.78,14.6,14.6,0,0,0,1.59,2.08A8.62,8.62,0,0,0,14,15.44a.48.48,0,0,0,.4-.13c.16-.16,1-1.28,1-1.28a.56.56,0,0,1,.71-.15c.45.22,2.39,1.25,2.39,1.25s.22.08.22.45a3,3,0,0,1-.42,1.56A3.31,3.31,0,0,1,16,18.37a10.1,10.1,0,0,1-5.79-2.76c-1.58-1.68-3-3.39-3.31-4.94S6.58,8.41,7,7.77Z" transform="translate(-1.39 -0.36)"/></svg>