<svg id="Layer_1" data-name="Layer 1" xmlns="http://www.w3.org/2000/svg" viewBox="0 0 142.65 91.92"><defs><style>.cls-1{fill:#e88823;}</style></defs><title>qutes2</title><path class="cls-1" d="M83.06,31.33a4.94,4.94,0,0,1,2.09-.21h38.68c2,0,2,0,2.48,1.94q7.71,34.26,15.44,68.52,2.22,9.83,4.46,19.66c.11.48.16,1,.24,1.45-.61.48-1.27.26-1.87.26q-24.23,0-48.46,0a8,8,0,0,0-.85,0c-.85.07-1.24-.22-1.34-1.16-.36-3.37-.81-6.74-1.22-10.11L90.34,92.1q-1.16-9.5-2.28-19Q86.83,63,85.61,52.89C84.76,45.73,83.92,38.56,83.06,31.33Z" transform="translate(-3.8 -31.08)"/><path class="cls-1" d="M67.16,123H17A9.35,9.35,0,0,0,16,123c-1,.1-1.37-.27-1.48-1.28-.84-7.45-1.73-14.9-2.62-22.34C11,91.69,10,84,9.08,76.39,8.3,70,7.56,63.6,6.8,57.21,5.87,49.56,5,41.9,4,34.25c-.39-3.14-.46-3.13,2.65-3.13H43.82a7.47,7.47,0,0,0,1.06,0c1.2-.16,1.72.27,2,1.54,1.48,6.91,3.07,13.8,4.63,20.7l15.15,67C66.82,121.13,67,121.9,67.16,123Z" transform="translate(-3.8 -31.08)"/></svg>