<svg id="Layer_1" data-name="Layer 1" xmlns="http://www.w3.org/2000/svg" viewBox="0 0 9.17 5.92"><defs><style>.cls-1{fill:#219c80;}</style></defs><title>qutes1</title><path class="cls-1" d="M2.45,8H1C.82,8,.73,8,.78,7.77,1.2,5.94,1.61,4.12,2,2.29c0-.14.08-.21.24-.21H4.62c.18,0,.22.06.2.24-.17,1.32-.33,2.65-.49,4-.06.48-.13,1-.17,1.45,0,.22-.11.25-.3.25Z" transform="translate(-0.77 -2.08)"/><path class="cls-1" d="M7.54,8H6.08c-.18,0-.23,0-.18-.23L7.13,2.3a.23.23,0,0,1,.27-.22H9.72c.18,0,.24,0,.21.23L9.27,7.77C9.25,8,9.18,8,9,8Z" transform="translate(-0.77 -2.08)"/></svg>